<?xml version="1.0" encoding="UTF-8" standalone="no" ?>
<!DOCTYPE svg PUBLIC "-//W3C//DTD SVG 1.1//EN" "http://www.w3.org/Graphics/SVG/1.1/DTD/svg11.dtd">
<svg xmlns="http://www.w3.org/2000/svg" xmlns:xlink="http://www.w3.org/1999/xlink" version="1.1" width="400" height="400" viewBox="0 0 400 400" xml:space="preserve">
<desc>Created with Fabric.js 1.7.22</desc>
<defs>
</defs>
<g id="icon" style="stroke: none; stroke-width: 1; stroke-dasharray: none; stroke-linecap: butt; stroke-linejoin: miter; stroke-miterlimit: 10; fill: none; fill-rule: nonzero; opacity: 1;" transform="translate(-1.9444444444444287 -1.9444444444444287) scale(3.89 3.89)" >
	<circle cx="45" cy="45" r="45" style="stroke: none; stroke-width: 1; stroke-dasharray: none; stroke-linecap: butt; stroke-linejoin: miter; stroke-miterlimit: 10; fill: rgb(255,200,67); fill-rule: nonzero; opacity: 1;" transform="  matrix(1 0 0 1 0 0) "/>
	<circle cx="45" cy="45" r="35" style="stroke: none; stroke-width: 1; stroke-dasharray: none; stroke-linecap: butt; stroke-linejoin: miter; stroke-miterlimit: 10; fill: rgb(211,135,0); fill-rule: nonzero; opacity: 1;" transform="  matrix(1 0 0 1 0 0) "/>
	<path d="M 67.666 58.585 c 0.045 -0.089 0.09 -0.177 0.126 -0.27 c 0.036 -0.094 0.062 -0.189 0.089 -0.285 c 0.025 -0.091 0.051 -0.181 0.067 -0.275 c 0.019 -0.108 0.026 -0.217 0.033 -0.326 C 67.985 57.364 68 57.302 68 57.236 V 46.821 c 0 -1.657 -1.343 -3 -3 -3 s -3 1.343 -3 3 v 3.64 L 47.017 36.862 c -0.599 -0.543 -1.387 -0.819 -2.199 -0.773 c -0.807 0.049 -1.56 0.422 -2.088 1.035 l -3.716 4.306 L 27.016 30.542 c -1.227 -1.115 -3.125 -1.021 -4.237 0.205 c -1.114 1.227 -1.022 3.124 0.205 4.237 L 37.258 47.94 c 0.599 0.543 1.385 0.826 2.199 0.772 c 0.807 -0.049 1.56 -0.422 2.088 -1.034 l 3.716 -4.306 L 57.23 54.236 h -3.335 c -1.657 0 -3 1.343 -3 3 s 1.343 3 3 3 H 65 c 0.42 0 0.818 -0.087 1.181 -0.243 c 0.055 -0.023 0.105 -0.059 0.159 -0.086 c 0.126 -0.063 0.251 -0.127 0.366 -0.206 c 0.061 -0.042 0.114 -0.095 0.172 -0.142 c 0.102 -0.082 0.202 -0.165 0.292 -0.26 c 0.016 -0.017 0.036 -0.028 0.052 -0.046 c 0.045 -0.05 0.076 -0.107 0.117 -0.159 c 0.067 -0.084 0.134 -0.168 0.192 -0.26 C 67.582 58.753 67.624 58.669 67.666 58.585 z" style="stroke: none; stroke-width: 1; stroke-dasharray: none; stroke-linecap: butt; stroke-linejoin: miter; stroke-miterlimit: 10; fill: rgb(255,200,67); fill-rule: nonzero; opacity: 1;" transform=" matrix(1 0 0 1 0 0) " stroke-linecap="round" />
</g>
</svg>