<?xml version="1.0" encoding="UTF-8" standalone="no" ?>
<!DOCTYPE svg PUBLIC "-//W3C//DTD SVG 1.1//EN" "http://www.w3.org/Graphics/SVG/1.1/DTD/svg11.dtd">
<svg xmlns="http://www.w3.org/2000/svg" xmlns:xlink="http://www.w3.org/1999/xlink" version="1.1" width="400" height="400" viewBox="0 0 400 400" xml:space="preserve">
<desc>Created with Fabric.js 1.7.22</desc>
<defs>
</defs>
<g id="icon" style="stroke: none; stroke-width: 1; stroke-dasharray: none; stroke-linecap: butt; stroke-linejoin: miter; stroke-miterlimit: 10; fill: none; fill-rule: nonzero; opacity: 1;" transform="translate(-1.9444444444444287 -1.9444444444444287) scale(3.89 3.89)" >
	<path d="M 1.15 77.37 h 25.602 c 0.635 0 1.15 0.746 1.15 1.666 v 2.155 c 0 0.952 -0.532 1.724 -1.189 1.724 H 1.189 C 0.533 82.915 0 82.143 0 81.191 v -2.155 C 0 78.116 0.515 77.37 1.15 77.37 z" style="stroke: none; stroke-width: 1; stroke-dasharray: none; stroke-linecap: butt; stroke-linejoin: miter; stroke-miterlimit: 10; fill: rgb(211,135,0); fill-rule: nonzero; opacity: 1;" transform=" matrix(1 0 0 1 0 0) " stroke-linecap="round" />
	<path d="M 1.15 71.825 h 25.602 c 0.635 0 1.15 0.746 1.15 1.666 v 2.155 c 0 0.952 -0.532 1.724 -1.189 1.724 H 1.189 C 0.533 77.37 0 76.598 0 75.646 v -2.155 C 0 72.571 0.515 71.825 1.15 71.825 z" style="stroke: none; stroke-width: 1; stroke-dasharray: none; stroke-linecap: butt; stroke-linejoin: miter; stroke-miterlimit: 10; fill: rgb(232,180,54); fill-rule: nonzero; opacity: 1;" transform=" matrix(1 0 0 1 0 0) " stroke-linecap="round" />
	<path d="M 1.15 66.28 h 25.602 c 0.635 0 1.15 0.746 1.15 1.666 v 2.155 c 0 0.952 -0.532 1.724 -1.189 1.724 H 1.189 C 0.533 71.825 0 71.053 0 70.101 v -2.155 C 0 67.026 0.515 66.28 1.15 66.28 z" style="stroke: none; stroke-width: 1; stroke-dasharray: none; stroke-linecap: butt; stroke-linejoin: miter; stroke-miterlimit: 10; fill: rgb(211,135,0); fill-rule: nonzero; opacity: 1;" transform=" matrix(1 0 0 1 0 0) " stroke-linecap="round" />
	<path d="M 1.15 60.735 h 25.602 c 0.635 0 1.15 0.746 1.15 1.666 v 2.155 c 0 0.952 -0.532 1.724 -1.189 1.724 H 1.189 C 0.533 66.28 0 65.508 0 64.556 v -2.155 C 0 61.481 0.515 60.735 1.15 60.735 z" style="stroke: none; stroke-width: 1; stroke-dasharray: none; stroke-linecap: butt; stroke-linejoin: miter; stroke-miterlimit: 10; fill: rgb(232,180,54); fill-rule: nonzero; opacity: 1;" transform=" matrix(1 0 0 1 0 0) " stroke-linecap="round" />
	<path d="M 1.15 55.19 h 25.602 c 0.635 0 1.15 0.746 1.15 1.666 v 2.155 c 0 0.952 -0.532 1.724 -1.189 1.724 H 1.189 C 0.533 60.735 0 59.963 0 59.011 v -2.155 C 0 55.936 0.515 55.19 1.15 55.19 z" style="stroke: none; stroke-width: 1; stroke-dasharray: none; stroke-linecap: butt; stroke-linejoin: miter; stroke-miterlimit: 10; fill: rgb(211,135,0); fill-rule: nonzero; opacity: 1;" transform=" matrix(1 0 0 1 0 0) " stroke-linecap="round" />
	<path d="M 1.15 49.645 h 25.602 c 0.635 0 1.15 0.746 1.15 1.666 v 2.155 c 0 0.952 -0.532 1.724 -1.189 1.724 H 1.189 C 0.533 55.19 0 54.418 0 53.466 v -2.155 C 0 50.391 0.515 49.645 1.15 49.645 z" style="stroke: none; stroke-width: 1; stroke-dasharray: none; stroke-linecap: butt; stroke-linejoin: miter; stroke-miterlimit: 10; fill: rgb(232,180,54); fill-rule: nonzero; opacity: 1;" transform=" matrix(1 0 0 1 0 0) " stroke-linecap="round" />
	<path d="M 1.15 44.1 h 25.602 c 0.635 0 1.15 0.746 1.15 1.666 v 2.155 c 0 0.952 -0.532 1.724 -1.189 1.724 H 1.189 C 0.533 49.645 0 48.874 0 47.922 v -2.155 C 0 44.846 0.515 44.1 1.15 44.1 z" style="stroke: none; stroke-width: 1; stroke-dasharray: none; stroke-linecap: butt; stroke-linejoin: miter; stroke-miterlimit: 10; fill: rgb(211,135,0); fill-rule: nonzero; opacity: 1;" transform=" matrix(1 0 0 1 0 0) " stroke-linecap="round" />
	<path d="M 1.15 38.556 h 25.602 c 0.635 0 1.15 0.746 1.15 1.666 v 2.155 c 0 0.952 -0.532 1.724 -1.189 1.724 H 1.189 C 0.533 44.1 0 43.329 0 42.377 v -2.155 C 0 39.302 0.515 38.556 1.15 38.556 z" style="stroke: none; stroke-width: 1; stroke-dasharray: none; stroke-linecap: butt; stroke-linejoin: miter; stroke-miterlimit: 10; fill: rgb(232,180,54); fill-rule: nonzero; opacity: 1;" transform=" matrix(1 0 0 1 0 0) " stroke-linecap="round" />
	<path d="M 78.716 46.426 c 0.045 -0.088 0.089 -0.175 0.125 -0.268 c 0.036 -0.094 0.063 -0.19 0.089 -0.287 c 0.025 -0.09 0.05 -0.179 0.067 -0.273 c 0.019 -0.109 0.026 -0.217 0.033 -0.327 c 0.004 -0.065 0.019 -0.126 0.019 -0.192 V 34.111 c 0 -1.657 -1.343 -3 -3 -3 s -3 1.343 -3 3 v 4.194 L 55.906 22.745 c -0.6 -0.543 -1.384 -0.818 -2.199 -0.773 c -0.807 0.049 -1.561 0.422 -2.089 1.035 l -6.879 7.971 L 15.967 4.863 c -1.227 -1.114 -3.124 -1.021 -4.238 0.206 c -1.113 1.227 -1.021 3.124 0.206 4.238 l 31.049 28.181 c 0.598 0.542 1.389 0.818 2.199 0.773 c 0.807 -0.049 1.561 -0.422 2.089 -1.035 l 6.88 -7.971 L 68.28 42.079 h -3.199 c -1.657 0 -3 1.343 -3 3 c 0 1.657 1.343 3 3 3 h 10.968 c 0.42 0 0.819 -0.087 1.181 -0.243 c 0.051 -0.022 0.098 -0.055 0.148 -0.08 c 0.13 -0.065 0.258 -0.13 0.377 -0.213 c 0.059 -0.041 0.111 -0.093 0.167 -0.138 c 0.103 -0.083 0.205 -0.168 0.297 -0.264 c 0.016 -0.017 0.036 -0.028 0.051 -0.046 c 0.045 -0.05 0.076 -0.107 0.118 -0.159 c 0.067 -0.084 0.133 -0.167 0.191 -0.258 C 78.631 46.596 78.673 46.511 78.716 46.426 z" style="stroke: none; stroke-width: 1; stroke-dasharray: none; stroke-linecap: butt; stroke-linejoin: miter; stroke-miterlimit: 10; fill: rgb(232,63,63); fill-rule: nonzero; opacity: 1;" transform=" matrix(1 0 0 1 0 0) " stroke-linecap="round" />
	<path d="M 32.199 77.37 h 25.602 c 0.635 0 1.15 0.746 1.15 1.666 v 2.155 c 0 0.952 -0.532 1.724 -1.189 1.724 H 32.239 c -0.657 0 -1.189 -0.772 -1.189 -1.724 v -2.155 C 31.049 78.116 31.564 77.37 32.199 77.37 z" style="stroke: none; stroke-width: 1; stroke-dasharray: none; stroke-linecap: butt; stroke-linejoin: miter; stroke-miterlimit: 10; fill: rgb(211,135,0); fill-rule: nonzero; opacity: 1;" transform=" matrix(1 0 0 1 0 0) " stroke-linecap="round" />
	<path d="M 32.199 71.825 h 25.602 c 0.635 0 1.15 0.746 1.15 1.666 v 2.155 c 0 0.952 -0.532 1.724 -1.189 1.724 H 32.239 c -0.657 0 -1.189 -0.772 -1.189 -1.724 v -2.155 C 31.049 72.571 31.564 71.825 32.199 71.825 z" style="stroke: none; stroke-width: 1; stroke-dasharray: none; stroke-linecap: butt; stroke-linejoin: miter; stroke-miterlimit: 10; fill: rgb(232,180,54); fill-rule: nonzero; opacity: 1;" transform=" matrix(1 0 0 1 0 0) " stroke-linecap="round" />
	<path d="M 32.199 66.28 h 25.602 c 0.635 0 1.15 0.746 1.15 1.666 v 2.155 c 0 0.952 -0.532 1.724 -1.189 1.724 H 32.239 c -0.657 0 -1.189 -0.772 -1.189 -1.724 v -2.155 C 31.049 67.026 31.564 66.28 32.199 66.28 z" style="stroke: none; stroke-width: 1; stroke-dasharray: none; stroke-linecap: butt; stroke-linejoin: miter; stroke-miterlimit: 10; fill: rgb(211,135,0); fill-rule: nonzero; opacity: 1;" transform=" matrix(1 0 0 1 0 0) " stroke-linecap="round" />
	<path d="M 32.199 60.735 h 25.602 c 0.635 0 1.15 0.746 1.15 1.666 v 2.155 c 0 0.952 -0.532 1.724 -1.189 1.724 H 32.239 c -0.657 0 -1.189 -0.772 -1.189 -1.724 v -2.155 C 31.049 61.481 31.564 60.735 32.199 60.735 z" style="stroke: none; stroke-width: 1; stroke-dasharray: none; stroke-linecap: butt; stroke-linejoin: miter; stroke-miterlimit: 10; fill: rgb(232,180,54); fill-rule: nonzero; opacity: 1;" transform=" matrix(1 0 0 1 0 0) " stroke-linecap="round" />
	<path d="M 63.248 77.37 H 88.85 c 0.635 0 1.15 0.746 1.15 1.666 v 2.155 c 0 0.952 -0.532 1.724 -1.189 1.724 H 63.288 c -0.657 0 -1.189 -0.772 -1.189 -1.724 v -2.155 C 62.098 78.116 62.613 77.37 63.248 77.37 z" style="stroke: none; stroke-width: 1; stroke-dasharray: none; stroke-linecap: butt; stroke-linejoin: miter; stroke-miterlimit: 10; fill: rgb(211,135,0); fill-rule: nonzero; opacity: 1;" transform=" matrix(1 0 0 1 0 0) " stroke-linecap="round" />
	<path d="M 63.248 71.825 H 88.85 c 0.635 0 1.15 0.746 1.15 1.666 v 2.155 c 0 0.952 -0.532 1.724 -1.189 1.724 H 63.288 c -0.657 0 -1.189 -0.772 -1.189 -1.724 v -2.155 C 62.098 72.571 62.613 71.825 63.248 71.825 z" style="stroke: none; stroke-width: 1; stroke-dasharray: none; stroke-linecap: butt; stroke-linejoin: miter; stroke-miterlimit: 10; fill: rgb(232,180,54); fill-rule: nonzero; opacity: 1;" transform=" matrix(1 0 0 1 0 0) " stroke-linecap="round" />
</g>
</svg>