<?xml version="1.0" encoding="UTF-8" standalone="no" ?>
<!DOCTYPE svg PUBLIC "-//W3C//DTD SVG 1.1//EN" "http://www.w3.org/Graphics/SVG/1.1/DTD/svg11.dtd">
<svg xmlns="http://www.w3.org/2000/svg" xmlns:xlink="http://www.w3.org/1999/xlink" version="1.1" width="400" height="400" viewBox="0 0 400 400" xml:space="preserve">
<desc>Created with Fabric.js 1.7.22</desc>
<defs>
</defs>
<g id="icon" style="stroke: none; stroke-width: 1; stroke-dasharray: none; stroke-linecap: butt; stroke-linejoin: miter; stroke-miterlimit: 10; fill: none; fill-rule: nonzero; opacity: 1;" transform="translate(-1.9444444444444287 -1.9444444444444287) scale(3.89 3.89)" >
	<circle cx="45" cy="45" r="45" style="stroke: none; stroke-width: 1; stroke-dasharray: none; stroke-linecap: butt; stroke-linejoin: miter; stroke-miterlimit: 10; fill: rgb(255,200,67); fill-rule: nonzero; opacity: 1;" transform="  matrix(1 0 0 1 0 0) "/>
	<circle cx="45" cy="45" r="35" style="stroke: none; stroke-width: 1; stroke-dasharray: none; stroke-linecap: butt; stroke-linejoin: miter; stroke-miterlimit: 10; fill: rgb(211,135,0); fill-rule: nonzero; opacity: 1;" transform="  matrix(1 0 0 1 0 0) "/>
	<path d="M 67.981 32.571 c -0.007 -0.11 -0.014 -0.218 -0.033 -0.327 c -0.016 -0.093 -0.042 -0.182 -0.067 -0.273 c -0.026 -0.097 -0.053 -0.193 -0.089 -0.288 c -0.036 -0.093 -0.08 -0.18 -0.125 -0.269 c -0.043 -0.085 -0.084 -0.169 -0.136 -0.25 c -0.058 -0.092 -0.126 -0.176 -0.193 -0.261 c -0.041 -0.051 -0.071 -0.108 -0.116 -0.157 c -0.016 -0.018 -0.036 -0.03 -0.052 -0.047 c -0.077 -0.081 -0.162 -0.151 -0.247 -0.223 c -0.067 -0.056 -0.13 -0.116 -0.2 -0.165 c -0.085 -0.06 -0.176 -0.107 -0.267 -0.158 c -0.079 -0.044 -0.156 -0.093 -0.239 -0.13 c -0.091 -0.04 -0.187 -0.067 -0.282 -0.099 c -0.09 -0.029 -0.178 -0.063 -0.27 -0.084 c -0.09 -0.02 -0.184 -0.028 -0.277 -0.04 c -0.104 -0.013 -0.207 -0.029 -0.312 -0.031 c -0.025 -0.001 -0.049 -0.007 -0.074 -0.007 H 53.896 c -1.657 0 -3 1.343 -3 3 s 1.343 3 3 3 h 3.335 l -11.97 10.864 l -3.716 -4.306 c -0.528 -0.612 -1.281 -0.985 -2.088 -1.035 c -0.815 -0.046 -1.601 0.23 -2.199 0.773 L 22.984 55.015 c -1.227 1.113 -1.319 3.011 -0.206 4.238 c 0.592 0.652 1.406 0.983 2.223 0.983 c 0.719 0 1.441 -0.257 2.015 -0.778 L 39.013 48.57 l 3.716 4.306 c 0.528 0.612 1.281 0.985 2.088 1.034 c 0.811 0.047 1.601 -0.23 2.199 -0.772 L 62 39.538 v 3.641 c 0 1.657 1.343 3 3 3 s 3 -1.344 3 -3 V 32.763 C 68 32.697 67.985 32.636 67.981 32.571 z" style="stroke: none; stroke-width: 1; stroke-dasharray: none; stroke-linecap: butt; stroke-linejoin: miter; stroke-miterlimit: 10; fill: rgb(255,200,67); fill-rule: nonzero; opacity: 1;" transform=" matrix(1 0 0 1 0 0) " stroke-linecap="round" />
</g>
</svg>